# AST/ASF file generated using VICON BodyLanguage
# -----------------------------------------------
:version 1.10
:name VICON
:units
  mass 1.0
  length 0.45
  angle deg
:documentation
   .ast/.asf automatically generated from VICON data using
   VICON BodyBuilder and BodyLanguage model FoxedUp or BRILLIANT.MOD
:root
   order TX TY TZ RX RY RZ
   axis XYZ
   position 0 0 0  
   orientation 0 0 0 
:bonedata
  begin
     id 1 
     name lhipjoint
     direction 0.710188 -0.616876 0.339259 
     length 2.5669 
     axis 0 0 0  XYZ
  end
  begin
     id 2 
     name lfemur
     direction 0.34202 -0.939693 0  
     length 7.12796  
     axis 0 0 20  XYZ
    dof rx ry rz
    limits (-160.0 20.0)
           (-70.0 70.0)
           (-60.0 70.0)
  end
  begin
     id 3 
     name ltibia
     direction 0.34202 -0.939693 0   
     length 7.58108   
     axis 0 0 20   XYZ
    dof rx
    limits (-10.0 170.0)
  end
  begin
     id 4 
     name lfoot
     direction 0.0669471 -0.183936 0.980656   
     length 2.17365   
     axis -90 7.62852e-016 20   XYZ
    dof rx rz
    limits (-45.0 90.0)
           (-70.0 20.0)
  end
  begin
     id 5 
     name ltoes
     direction 1.53508e-011 -4.21705e-011 1   
     length 1.09427   
     axis -90 7.62852e-016 20   XYZ
    dof rx
    limits (-90.0 20.0)
  end
  begin
     id 6 
     name rhipjoint
     direction -0.700191 -0.625589 0.34405   
     length 2.53115  
     axis 0 0 0  XYZ 
  end
  begin
     id 7 
     name rfemur
     direction -0.34202 -0.939693 0   
     length 7.33006   
     axis 0 0 -20   XYZ
    dof rx ry rz
    limits (-160.0 20.0)
           (-70.0 70.0)
           (-70.0 60.0)
  end
  begin
     id 8 
     name rtibia
     direction -0.34202 -0.939693 0   
     length 7.64926   
     axis 0 0 -20   XYZ
    dof rx
    limits (-10.0 170.0)
 end
 begin
     id 9 
     name rfoot
     direction -0.0688927 -0.189281 0.979503   
     length 2.20493  
     axis -90 -7.62852e-016 -20   XYZ
    dof rx rz
    limits (-45.0 90.0)
           (-20.0 70.0)
  end
  begin
     id 10 
     name rtoes
     direction -1.53567e-011 -4.21933e-011 1   
     length 1.10919   
     axis -90 -7.62852e-016 -20   XYZ
    dof rx
    limits (-90.0 20.0)
  end
  begin
     id 11 
     name lowerback
     direction -0.0167868 0.989873 -0.140959   
     length 2.14596   
     axis 0 0 0   XYZ
    dof rx ry rz
    limits (-20.0 45.0)
           (-30.0 30.0)
           (-30.0 30.0)
  end
  begin
     id 12 
     name upperback
     direction 0.0129109 0.998033 0.0613525   
     length 2.10457   
     axis 0 0 0   XYZ
    dof rx ry rz
    limits (-20.0 45.0)
           (-30.0 30.0)
           (-30.0 30.0)
  end
  begin
     id 13 
     name thorax
     direction 0.0177047 0.991119 0.131797   
     length 2.17652   
     axis 0 0 0   XYZ
    dof rx ry rz
    limits (-20.0 45.0)
           (-30.0 30.0)
           (-30.0 30.0)
  end
  begin
     id 14 
     name lowerneck
     direction -0.0336893 0.997548 0.0613464   
     length 1.8912   
     axis 0 0 0   XYZ
    dof rx ry rz
    limits (-20.0 45.0)
           (-30.0 30.0)
           (-30.0 30.0)
  end
  begin
     id 15 
     name upperneck
     direction 0.0435909 0.997179 -0.0611028   
     length 1.8829   
     axis 0 0 0   XYZ
    dof rx ry rz
    limits (-20.0 45.0)
           (-30.0 30.0)
           (-30.0 30.0)
  end
  begin
     id 16
     name head
     direction 0.0175076 0.999444 -0.0283782  
     length 1.93197  
     axis 0 0 0   XYZ
    dof rx ry rz
    limits (-20.0 45.0)
           (-30.0 30.0)
           (-30.0 30.0)
  end
  begin
     id 17 
     name lclavicle
     direction 0.919164 0.389875 0.0559876  
     length 3.60004  
     axis 0 0 0   XYZ
    dof ry rz
    limits (-20.0 10.0)
           (0.0 20.0)
  end
  begin
     id 18 
     name lhumerus
     direction 1 -4.48958e-011 6.89191e-027   
     length 5.43301   
     axis 180 -30 -90   XYZ
    dof rx ry rz
    limits (-60.0 90.0)
           (-90.0 90.0)
           (-90.0 90.0)
  end
  begin
     id 19
     name lradius
     direction 1 -4.4897e-011 3.24727e-027   
     length 3.15936   
     axis 180 -30 -90   XYZ
    dof rx
    limits (-10.0 170.0)
  end
  begin
     id 20
     name lwrist
     direction 1 -4.4897e-011 9.00228e-027   
     length 1.57968   
     axis -6.29373e-015 90 90   XYZ
    dof ry
    limits (-180.0 0.0)
 end
  begin
     id 21 
     name lhand
     direction 1 -4.48968e-011 1.80042e-026   
     length 0.712827   
     axis -1.14882e-014 90 90   XYZ
    dof rx rz
    limits (-90.0 90.0)
           (-45.0 45.0)
  end
  begin
     id 22 
     name lfingers
     direction 1 -4.49019e-011 3.60267e-026   
     length 0.574699   
     axis -2.29769e-014 90 90   XYZ
    dof rx
    limits (0.0 90.0)
  end
  begin
     id 23
     name lthumb
     direction 0.707107 -6.3498e-011 0.707107   
     length 0.825157   
     axis -90 45 5.37419e-014   XYZ
    dof rx rz
    limits (-45.0 45.0)
           (-45.0 45.0)
  end
  begin
     id 24 
     name rclavicle
     direction -0.890334 0.455305 -0.00132111   
     length 3.51494  
     axis 0 0 0   XYZ 
    dof ry rz
    limits (-10.0 20.0)
           (-20.0 0.0)
  end
  begin
     id 25 
     name rhumerus
     direction -1 -4.48967e-011 5.07175e-028  
     length 5.34194   
     axis 180 30 90   XYZ
    dof rx ry rz
    limits (-90.0 60.0)
           (-90.0 90.0)
           (-90.0 90.0)
  end
  begin
     id 26 
     name rradius
     direction -1 -4.48955e-011 3.30467e-027   
     length 3.19351   
     axis 180 30 90   XYZ
    dof rx
    limits (-10.0 170.0)
  end
  begin
     id 27 
     name rwrist
     direction -1 -4.48968e-011 9.00208e-027   
     length 1.59676   
     axis -6.29373e-015 -90 -90   XYZ
    dof ry
    limits (-180.0 0.0)
  end
  begin
     id 28
     name rhand
     direction -1 -4.49e-011 1.80099e-026   
     length 0.743862   
     axis -1.14882e-014 -90 -90   XYZ
    dof rx rz
    limits (-90.0 90.0)
           (-45.0 45.0)
  end
  begin
     id 29
     name rfingers
     direction -1 -4.49009e-011 3.6023e-026   
     length 0.599721   
     axis -2.29769e-014 -90 -90   XYZ
    dof rx
    limits (0.0 90.0)
  end
  begin
     id 30
     name rthumb
     direction -0.707107 -6.35025e-011 0.707107   
     length 0.861083   
     axis -90 -45 -5.37419e-014   XYZ
    dof rx rz
    limits (-45.0 45.0)
           (-45.0 45.0)
  end
:hierarchy
  begin
    root lhipjoint rhipjoint lowerback
    lhipjoint lfemur
    lfemur ltibia
    ltibia lfoot
    lfoot ltoes
    rhipjoint rfemur
    rfemur rtibia
    rtibia rfoot
    rfoot rtoes
    lowerback upperback
    upperback thorax
    thorax lowerneck lclavicle rclavicle
    lowerneck upperneck
    upperneck head
    lclavicle lhumerus
    lhumerus lradius
    lradius lwrist
    lwrist lhand lthumb
    lhand lfingers
    rclavicle rhumerus
    rhumerus rradius
    rradius rwrist
    rwrist rhand rthumb
    rhand rfingers
  end

#!OML:ASF H:\Martial Arts Walks\Project 1\Capture day 1\Session 1\male.ASF
:FULLY-SPECIFIED
:DEGREES
336
root -1.19971 14.0596 -16.0056 8.22295 27.0969 11.1708
lowerback 13.8512 3.55802 -14.8136
upperback -1.49162 2.09206 -1.3002
thorax -10.0342 1.77587 6.43835
lowerneck 1.48577 -12.2297 -13.1722
upperneck 0.979558 -16.6845 10.8853
head 2.06556 -8.36817 4.80669
rclavicle -8.10544e-014 -1.66979e-014
rhumerus 44.9527 -14.6906 -62.0099
rradius 17.4628
rwrist 26.7843
rhand -16.73 -22.8947
rfingers 7.12502
rthumb 9.49589 -52.6608
lclavicle -8.10544e-014 -1.66979e-014
lhumerus -69.5006 -18.9131 105.019
lradius 101.502
lwrist 53.0044
lhand -3.42729 44.1933
lfingers 7.12502
lthumb 22.3038 72.9261
rfemur -65.401 -22.6414 6.01914
rtibia 67.8642
rfoot -1.33917 8.07474
rtoes 0.0792134
lfemur 9.30987 2.67071 -13.0994
ltibia 37.6214
lfoot -23.2365 32.6061
ltoes -24.7433
337
root -1.19912 14.0516 -15.974 8.4693 27.0452 11.3546
lowerback 13.8396 3.57808 -14.844
upperback -1.4966 2.11041 -1.35456
thorax -10.0367 1.7848 6.38992
lowerneck 1.51479 -12.2131 -13.1475
upperneck 0.802295 -16.6536 10.8642
head 2.00071 -8.35327 4.8079
rclavicle -1.69215e-014 -5.78463e-014
rhumerus 45.114 -14.8656 -62.0354
rradius 17.5062
rwrist 26.9734
rhand -16.6594 -22.8707
rfingers 7.12502
rthumb 9.56394 -52.6336
lclavicle -1.69215e-014 -5.78463e-014
lhumerus -69.6609 -18.788 104.942
lradius 101.607
lwrist 53.1545
lhand -3.18746 44.177
lfingers 7.12502
lthumb 22.534 72.882
rfemur -65.7027 -22.7154 5.96106
rtibia 68.186
rfoot -1.55246 8.05154
rtoes 0.188925
lfemur 9.43579 2.90073 -13.1399
ltibia 37.2342
lfoot -23.2359 32.4513
ltoes -24.9754
338
root -1.19784 14.0423 -15.9441 8.69272 26.9786 11.5373
lowerback 13.8185 3.6063 -14.8761
upperback -1.49543 2.14169 -1.4089
thorax -10.0298 1.79905 6.3397
lowerneck 1.55509 -12.1978 -13.112
upperneck 0.647513 -16.6266 10.8273
head 1.93895 -8.3406 4.80284
rclavicle -3.78933e-014 3.37934e-015
rhumerus 45.2439 -15.0012 -62.004
rradius 17.5589
rwrist 27.0639
rhand -16.5563 -22.8501
rfingers 7.12502
rthumb 9.66348 -52.6084
lclavicle -3.78933e-014 3.37934e-015
lhumerus -69.7777 -18.6684 104.859
lradius 101.691
lwrist 53.4363
lhand -3.10316 44.2436
lfingers 7.12502
lthumb 22.615 72.9388
rfemur -65.9971 -22.7838 5.89629
rtibia 68.5067
rfoot -1.7515 8.04363
rtoes 0.358261
lfemur 9.55018 3.11415 -13.2084
ltibia 36.9165
lfoot -23.2703 32.3355
ltoes -25.1255
339
root -1.19597 14.0321 -15.9154 8.88142 26.9057 11.7053
lowerback 13.7993 3.63727 -14.9056
upperback -1.48712 2.17805 -1.45566
thorax -10.0171 1.81512 6.29556
lowerneck 1.58811 -12.1857 -13.0715
upperneck 0.526363 -16.6048 10.777
head 1.88736 -8.33035 4.79115
rclavicle -9.46712e-015 -2.8625e-014
rhumerus 45.3604 -15.0973 -61.9384
rradius 17.6124
rwrist 27.0863
rhand -16.4076 -22.8276
rfingers 7.12502
rthumb 9.8069 -52.5792
lclavicle -9.46712e-015 -2.8625e-014
lhumerus -69.8485 -18.5438 104.764
lradius 101.758
lwrist 53.773
lhand -3.11825 44.3916
lfingers 7.12502
lthumb 22.6005 73.0885
rfemur -66.2656 -22.8487 5.8337
rtibia 68.8217
rfoot -1.95055 8.04984
rtoes 0.583099
lfemur 9.67742 3.2873 -13.2878
ltibia 36.6353
lfoot -23.2994 32.2652
ltoes -25.2553
340
root -1.19352 14.0212 -15.8877 9.02694 26.8319 11.8499
lowerback 13.7936 3.67181 -14.9259
upperback -1.47552 2.21934 -1.49353
thorax -10.0095 1.83344 6.25467
lowerneck 1.62163 -12.1793 -13.0265
upperneck 0.438317 -16.5922 10.7208
head 1.84574 -8.32477 4.77534
rclavicle -5.32494e-014 -7.7526e-015
rhumerus 45.473 -15.1934 -61.8898
rradius 17.6531
rwrist 27.1101
rhand -16.2251 -22.7983
rfingers 7.12502
rthumb 9.98303 -52.5415
lclavicle -5.32494e-014 -7.7526e-015
lhumerus -69.8846 -18.419 104.66
lradius 101.811
lwrist 54.1028
lhand -3.14912 44.6114
lfingers 7.12502
lthumb 22.5708 73.312
rfemur -66.4938 -22.9117 5.77846
rtibia 69.1267
rfoot -2.15968 8.07063
rtoes 0.843391
lfemur 9.83677 3.40911 -13.3658
ltibia 36.3636
lfoot -23.2935 32.2415
ltoes -25.3821
341
root -1.19038 14.01 -15.8609 9.12921 26.7579 11.9764
lowerback 13.8032 3.71129 -14.9437
upperback -1.46149 2.26561 -1.52428
thorax -10.0092 1.85455 6.21875
lowerneck 1.66706 -12.1757 -12.982
upperneck 0.378483 -16.5868 10.6724
head 1.81217 -8.32316 4.76109
rclavicle 3.35946e-014 1.61016e-014
rhumerus 45.5679 -15.277 -61.8347
rradius 17.6836
rwrist 27.1165
rhand -16.0187 -22.7682
rfingers 7.12502
rthumb 10.1821 -52.5018
lclavicle 3.35946e-014 1.61016e-014
lhumerus -69.895 -18.2973 104.552
lradius 101.849
lwrist 54.3875
lhand -3.13837 44.8685
lfingers 7.12502
lthumb 22.5812 73.5678
rfemur -66.6755 -22.9784 5.7243
rtibia 69.4209
rfoot -2.38423 8.11175
rtoes 1.14444
lfemur 10.0399 3.47957 -13.4453
ltibia 36.0854
lfoot -23.2337 32.2661
ltoes -25.5155
342
root -1.18681 13.9987 -15.8345 9.1937 26.6839 12.0744
lowerback 13.8217 3.75371 -14.9575
upperback -1.44691 2.31595 -1.54246
thorax -10.0147 1.87809 6.19334
lowerneck 1.71144 -12.18 -12.9383
upperneck 0.346713 -16.5937 10.6274
head 1.78891 -8.32768 4.74598
rclavicle 4.96962e-015 -1.27222e-014
rhumerus 45.6589 -15.3619 -61.7959
rradius 17.6999
rwrist 27.1363
rhand -15.8005 -22.738
rfingers 7.12502
rthumb 10.3926 -52.4611
lclavicle 4.96962e-015 -1.27222e-014
lhumerus -69.8942 -18.1768 104.449
lradius 101.884
lwrist 54.6138
lhand -3.09265 45.137
lfingers 7.12502
lthumb 22.625 73.831
rfemur -66.8192 -23.0431 5.68444
rtibia 69.7044
rfoot -2.6172 8.16322
rtoes 1.47552
lfemur 10.2785 3.51135 -13.5105
ltibia 35.7948
lfoot -23.1308 32.3246
ltoes -25.6412
343
root -1.18294 13.9874 -15.8085 9.2326 26.6106 12.154
lowerback 13.8422 3.79808 -14.9776
upperback -1.43587 2.36766 -1.55341
thorax -10.0265 1.90342 6.1789
lowerneck 1.76794 -12.1899 -12.8928
upperneck 0.33331 -16.6107 10.5928
head 1.77111 -8.33759 4.73306
rclavicle 5.42185e-014 1.11319e-014
rhumerus 45.7374 -15.4541 -61.7834
rradius 17.7051
rwrist 27.1839
rhand -15.5966 -22.7086
rfingers 7.12502
rthumb 10.5893 -52.4219
lclavicle 5.42185e-014 1.11319e-014
lhumerus -69.896 -18.0635 104.355
lradius 101.911
lwrist 54.7877
lhand -3.01788 45.3905
lfingers 7.12502
lthumb 22.6968 74.0757
rfemur -66.9355 -23.1083 5.65144
rtibia 69.9817
rfoot -2.85327 8.22152
rtoes 1.84814
lfemur 10.5421 3.51645 -13.5679
ltibia 35.4949
lfoot -22.9968 32.4076
ltoes -25.7613
344
root -1.17889 13.9761 -15.7825 9.25843 26.5381 12.2253
lowerback 13.8587 3.84083 -15.0137
upperback -1.42862 2.41523 -1.5597
thorax -10.0405 1.92814 6.17951
lowerneck 1.82361 -12.2036 -12.8503
upperneck 0.340298 -16.6343 10.5723
head 1.76176 -8.35086 4.72333
rclavicle -2.79789e-014 6.20208e-014
rhumerus 45.8022 -15.5381 -61.7862
rradius 17.7045
rwrist 27.2515
rhand -15.4219 -22.6827
rfingers 7.12502
rthumb 10.7578 -52.3873
lclavicle -2.79789e-014 6.20208e-014
lhumerus -69.9065 -17.9555 104.274
lradius 101.929
lwrist 54.9131
lhand -2.91598 45.6113
lfingers 7.12502
lthumb 22.7946 74.2845
rfemur -67.0369 -23.1746 5.61788
rtibia 70.2581
rfoot -3.08405 8.27983
rtoes 2.26309
lfemur 10.8182 3.50735 -13.6235
ltibia 35.1928
lfoot -22.8521 32.5044
ltoes -25.8618
345
root -1.17514 13.9647 -15.7566 9.27955 26.4655 12.2818
lowerback 13.8636 3.8799 -15.0627
upperback -1.42694 2.4578 -1.56031
thorax -10.0542 1.95166 6.19503
lowerneck 1.87049 -12.2214 -12.8152
upperneck 0.366779 -16.664 10.5675
head 1.7623 -8.36699 4.71734
rclavicle 5.40943e-014 -2.82274e-014
rhumerus 45.848 -15.5993 -61.7875
rradius 17.7069
rwrist 27.3238
rhand -15.2814 -22.6631
rfingers 7.12502
rthumb 10.8933 -52.3605
lclavicle 5.40943e-014 -2.82274e-014
lhumerus -69.928 -17.8581 104.212
lradius 101.937
lwrist 54.9949
lhand -2.78803 45.7854
lfingers 7.12502
lthumb 22.9174 74.4434
rfemur -67.1387 -23.2326 5.59543
rtibia 70.536
rfoot -3.30557 8.32186
rtoes 2.70631
lfemur 11.0887 3.49818 -13.6662
ltibia 34.8968
lfoot -22.7181 32.5976
ltoes -25.937
346
root -1.17184 13.9532 -15.7304 9.30484 26.3984 12.3394
lowerback 13.8551 3.91309 -15.1373
upperback -1.42851 2.49051 -1.55897
thorax -10.0632 1.97187 6.22969
lowerneck 1.90546 -12.2418 -12.7888
upperneck 0.408674 -16.6975 10.5776
head 1.77178 -8.38471 4.71515
rclavicle -7.35503e-015 4.77083e-014
rhumerus 45.8707 -15.6275 -61.7738
rradius 17.7204
rwrist 27.3924
rhand -15.1812 -22.6501
rfingers 7.12502
rthumb 10.9899 -52.3425
lclavicle -7.35503e-015 4.77083e-014
lhumerus -69.9583 -17.7755 104.17
lradius 101.928
lwrist 55.041
lhand -2.64794 45.9151
lfingers 7.12502
lthumb 23.0518 74.5564
rfemur -67.2449 -23.2909 5.57209
rtibia 70.819
rfoot -3.51756 8.3435
rtoes 3.14446
lfemur 11.3471 3.48912 -13.7071
ltibia 34.6126
lfoot -22.6033 32.679
ltoes -25.9883
